# AST/ASF file generated using VICON BodyLanguage
# -----------------------------------------------
:version 1.10
:name VICON
:units
  mass 1.0
  length 0.45
  angle deg
:documentation
   .ast/.asf automatically generated from VICON data using
   VICON BodyBuilder and BodyLanguage model FoxedUp or BRILLIANT.MOD
:root
   order TX TY TZ RX RY RZ
   axis XYZ
   position 0 0 0  
   orientation 0 0 0 
:bonedata
  begin
     id 1 
     name lhipjoint
     direction 0.610259 -0.730986 0.305356 
     length 2.50941 
     axis 0 0 0  XYZ
  end
  begin
     id 2 
     name lfemur
     direction 0.34202 -0.939693 0  
     length 7.48822  
     axis 0 0 20  XYZ
    dof rx ry rz
    limits (-160.0 20.0)
           (-70.0 70.0)
           (-60.0 70.0)
  end
  begin
     id 3 
     name ltibia
     direction 0.34202 -0.939693 0   
     length 7.60141   
     axis 0 0 20   XYZ
    dof rx
    limits (-10.0 170.0)
  end
  begin
     id 4 
     name lfoot
     direction 0.0673488 -0.185039 0.980421   
     length 2.04049   
     axis -90 7.62852e-016 20   XYZ
    dof rx rz
    limits (-45.0 90.0)
           (-70.0 20.0)
  end
  begin
     id 5 
     name ltoes
     direction 1.5356e-011 -4.21729e-011 1   
     length 1.02897   
     axis -90 7.62852e-016 20   XYZ
    dof rx
    limits (-90.0 20.0)
  end
  begin
     id 6 
     name rhipjoint
     direction -0.57612 -0.754205 0.315056   
     length 2.43216  
     axis 0 0 0  XYZ 
  end
  begin
     id 7 
     name rfemur
     direction -0.34202 -0.939693 0   
     length 7.42799   
     axis 0 0 -20   XYZ
    dof rx ry rz
    limits (-160.0 20.0)
           (-70.0 70.0)
           (-70.0 60.0)
  end
  begin
     id 8 
     name rtibia
     direction -0.34202 -0.939693 0   
     length 7.69484   
     axis 0 0 -20   XYZ
    dof rx
    limits (-10.0 170.0)
 end
 begin
     id 9 
     name rfoot
     direction -0.111837 -0.30727 0.945028   
     length 2.15769  
     axis -90 -7.62852e-016 -20   XYZ
    dof rx rz
    limits (-45.0 90.0)
           (-20.0 70.0)
  end
  begin
     id 10 
     name rtoes
     direction -1.53539e-011 -4.21878e-011 1   
     length 1.07391   
     axis -90 -7.62852e-016 -20   XYZ
    dof rx
    limits (-90.0 20.0)
  end
  begin
     id 11 
     name lowerback
     direction 0.00552624 0.990109 -0.140195   
     length 2.12403   
     axis 0 0 0   XYZ
    dof rx ry rz
    limits (-20.0 45.0)
           (-30.0 30.0)
           (-30.0 30.0)
  end
  begin
     id 12 
     name upperback
     direction 0.00361898 0.999976 -0.00584723   
     length 2.13232   
     axis 0 0 0   XYZ
    dof rx ry rz
    limits (-20.0 45.0)
           (-30.0 30.0)
           (-30.0 30.0)
  end
  begin
     id 13 
     name thorax
     direction -0.000331275 0.998253 0.0590847   
     length 2.17688   
     axis 0 0 0   XYZ
    dof rx ry rz
    limits (-20.0 45.0)
           (-30.0 30.0)
           (-30.0 30.0)
  end
  begin
     id 14 
     name lowerneck
     direction -0.0561561 0.979832 0.19177   
     length 1.64159   
     axis 0 0 0   XYZ
    dof rx ry rz
    limits (-20.0 45.0)
           (-30.0 30.0)
           (-30.0 30.0)
  end
  begin
     id 15 
     name upperneck
     direction 0.0827153 0.979385 -0.184293   
     length 1.68939   
     axis 0 0 0   XYZ
    dof rx ry rz
    limits (-20.0 45.0)
           (-30.0 30.0)
           (-30.0 30.0)
  end
  begin
     id 16
     name head
     direction 0.0278583 0.995936 -0.0856488  
     length 1.70207  
     axis 0 0 0   XYZ
    dof rx ry rz
    limits (-20.0 45.0)
           (-30.0 30.0)
           (-30.0 30.0)
  end
  begin
     id 17 
     name lclavicle
     direction 0.950993 0.301131 -0.0702275  
     length 3.41652  
     axis 0 0 0   XYZ
    dof ry rz
    limits (-20.0 10.0)
           (0.0 20.0)
  end
  begin
     id 18 
     name lhumerus
     direction 1 -4.48981e-011 -3.9662e-029   
     length 5.32955   
     axis 180 -30 -90   XYZ
    dof rx ry rz
    limits (-60.0 90.0)
           (-90.0 90.0)
           (-90.0 90.0)
  end
  begin
     id 19
     name lradius
     direction 1 -4.48925e-011 -9.0549e-027   
     length 3.69232   
     axis 180 -30 -90   XYZ
    dof rx
    limits (-10.0 170.0)
  end
  begin
     id 20
     name lwrist
     direction 1 -4.49007e-011 -1.49005e-026   
     length 1.84616   
     axis 9.0955e-015 90 90   XYZ
    dof ry
    limits (-180.0 0.0)
 end
  begin
     id 21 
     name lhand
     direction 1 -4.49016e-011 -2.98023e-026   
     length 0.536598   
     axis 1.90115e-014 90 90   XYZ
    dof rx rz
    limits (-90.0 90.0)
           (-45.0 45.0)
  end
  begin
     id 22 
     name lfingers
     direction 1 -4.48924e-011 -5.9578e-026   
     length 0.432619   
     axis 3.80223e-014 90 90   XYZ
    dof rx
    limits (0.0 90.0)
  end
  begin
     id 23
     name lthumb
     direction 0.707107 -6.34947e-011 0.707107   
     length 0.621157   
     axis -90 45 -3.84942e-014   XYZ
    dof rx rz
    limits (-45.0 45.0)
           (-45.0 45.0)
  end
  begin
     id 24 
     name rclavicle
     direction -0.955495 0.276497 -0.102848   
     length 3.36357  
     axis 0 0 0   XYZ 
    dof ry rz
    limits (-10.0 20.0)
           (-20.0 0.0)
  end
  begin
     id 25 
     name rhumerus
     direction -1 -4.48961e-011 3.30983e-027  
     length 5.23431   
     axis 180 30 90   XYZ
    dof rx ry rz
    limits (-90.0 60.0)
           (-90.0 90.0)
           (-90.0 90.0)
  end
  begin
     id 26 
     name rradius
     direction -1 -4.48965e-011 -6.63263e-027   
     length 3.55301   
     axis 180 30 90   XYZ
    dof rx
    limits (-10.0 170.0)
  end
  begin
     id 27 
     name rwrist
     direction -1 -4.48942e-011 -1.48958e-026   
     length 1.77651   
     axis 9.0955e-015 -90 -90   XYZ
    dof ry
    limits (-180.0 0.0)
  end
  begin
     id 28
     name rhand
     direction -1 -4.48977e-011 -2.97966e-026   
     length 0.772522   
     axis 1.90115e-014 -90 -90   XYZ
    dof rx rz
    limits (-90.0 90.0)
           (-45.0 45.0)
  end
  begin
     id 29
     name rfingers
     direction -1 -4.49135e-011 -5.96389e-026   
     length 0.622827   
     axis 3.80223e-014 -90 -90   XYZ
    dof rx
    limits (0.0 90.0)
  end
  begin
     id 30
     name rthumb
     direction -0.707107 -6.34969e-011 0.707107   
     length 0.894259   
     axis -90 -45 3.84942e-014   XYZ
    dof rx rz
    limits (-45.0 45.0)
           (-45.0 45.0)
  end
:hierarchy
  begin
    root lhipjoint rhipjoint lowerback
    lhipjoint lfemur
    lfemur ltibia
    ltibia lfoot
    lfoot ltoes
    rhipjoint rfemur
    rfemur rtibia
    rtibia rfoot
    rfoot rtoes
    lowerback upperback
    upperback thorax
    thorax lowerneck lclavicle rclavicle
    lowerneck upperneck
    upperneck head
    lclavicle lhumerus
    lhumerus lradius
    lradius lwrist
    lwrist lhand lthumb
    lhand lfingers
    rclavicle rhumerus
    rhumerus rradius
    rradius rwrist
    rwrist rhand rthumb
    rhand rfingers
  end

#!OML:ASF F:\VICON\USERDATA\INSTALL\rory3\rory3.ASF
:FULLY-SPECIFIED
:DEGREES
32
root 15.3019 18.1418 -9.72676 0.369941 -50.779 1.49937
lowerback 6.16663 -0.0491401 -0.385344
upperback -1.65083 -0.0589338 0.784513
thorax -5.17265 -0.00438985 1.03674
lowerneck -24.8111 -4.01108 -9.92014
upperneck 26.2808 -3.8935 6.39742
head 13.3229 -1.86549 3.45398
rclavicle 1.59649e-015 -2.38542e-015
rhumerus -33.5667 -10.9342 -81.6054
rradius 27.3289
rwrist 13.8109
rhand -11.6844 7.57606
rfingers 7.12502
rthumb 14.3611 -21.9072
lclavicle 1.59649e-015 -2.38542e-015
lhumerus -35.6119 5.75096 85.1792
lradius 28.492
lwrist -11.8167
lhand -16.0087 25.4174
lfingers 7.12502
lthumb 10.1918 55.1505
rfemur -11.3783 6.27577 22.8435
rtibia 34.5706
rfoot -19.3689 -8.40588
rtoes 5.20754
lfemur -4.82314 -4.54392 -24.2468
ltibia 23.7886
lfoot -14.6905 8.02451
ltoes 4.19451
33
root 15.3005 18.1405 -9.72583 0.434472 -50.7718 1.42497
lowerback 6.14596 -0.0412369 -0.342653
upperback -1.66093 -0.0449394 0.78386
thorax -5.17177 0.00118555 1.01056
lowerneck -24.6754 -4.02132 -9.93075
upperneck 26.2068 -3.92356 6.42053
head 13.2688 -1.8775 3.45747
rclavicle -2.75006e-014 -6.36111e-015
rhumerus -33.6054 -10.8864 -81.6007
rradius 27.3643
rwrist 13.6425
rhand -11.7245 7.51925
rfingers 7.12502
rthumb 14.3225 -21.9667
lclavicle -2.75006e-014 -6.36111e-015
lhumerus -35.6768 5.80553 85.1868
lradius 28.59
lwrist -11.7866
lhand -16.3058 25.3997
lfingers 7.12502
lthumb 9.90514 55.1466
rfemur -11.3688 6.28133 22.8989
rtibia 34.54
rfoot -19.3644 -8.41414
rtoes 5.14232
lfemur -4.82627 -4.48169 -24.1765
ltibia 23.7908
lfoot -14.7057 7.99406
ltoes 3.26345
34
root 15.2983 18.1419 -9.72314 0.423747 -50.7689 1.38855
lowerback 6.16048 -0.0326824 -0.306036
upperback -1.65427 -0.0315405 0.763318
thorax -5.17331 0.00631946 0.967271
lowerneck -24.7215 -4.03044 -9.88
upperneck 26.2889 -3.95336 6.40913
head 13.3135 -1.88779 3.44082
rclavicle 6.09896e-014 1.11319e-014
rhumerus -33.6227 -11.0462 -81.5605
rradius 27.3427
rwrist 13.6777
rhand -11.6908 7.5218
rfingers 7.12502
rthumb 14.3549 -21.9619
lclavicle 6.09896e-014 1.11319e-014
lhumerus -35.7305 6.01997 85.1146
lradius 28.6659
lwrist -11.9408
lhand -16.3424 25.8363
lfingers 7.12502
lthumb 9.86986 55.5849
rfemur -11.2942 6.25949 22.9287
rtibia 34.5134
rfoot -19.3555 -8.40407
rtoes 5.12512
lfemur -4.77479 -4.39685 -24.1575
ltibia 23.7888
lfoot -14.7634 7.87746
ltoes 4.38355
35
root 15.294 18.1446 -9.72058 0.380023 -50.7652 1.46438
lowerback 6.10853 -0.034326 -0.393082
upperback -1.66228 -0.0416259 0.744815
thorax -5.15194 0.00373704 0.997898
lowerneck -25.1644 -4.04849 -9.7555
upperneck 26.7384 -3.983 6.33997
head 13.5887 -1.89871 3.39778
rclavicle 7.05189e-014 3.18055e-015
rhumerus -33.6309 -11.2443 -81.4928
rradius 27.2881
rwrist 13.8345
rhand -11.6661 7.6122
rfingers 7.12502
rthumb 14.3788 -21.8698
lclavicle 7.05189e-014 3.18055e-015
lhumerus -35.7694 6.14422 85.0759
lradius 28.69
lwrist -12.1571
lhand -15.9469 26.1456
lfingers 7.12502
lthumb 10.2513 55.8758
rfemur -11.2787 6.2567 22.879
rtibia 34.4877
rfoot -19.3551 -8.40883
rtoes 4.98555
lfemur -4.76358 -4.3522 -24.2138
ltibia 23.7645
lfoot -14.78 7.82007
ltoes 5.3717
36
root 15.2884 18.1431 -9.71891 0.459992 -50.7571 1.42191
lowerback 5.99214 -0.0332517 -0.406748
upperback -1.6611 -0.0414914 0.740133
thorax -5.08454 0.00386586 1.00031
lowerneck -24.9091 -4.03863 -9.80917
upperneck 26.5409 -3.9947 6.43058
head 13.4589 -1.8974 3.43619
rclavicle 4.32854e-014 -4.37326e-015
rhumerus -33.6159 -11.5371 -81.3899
rradius 27.2253
rwrist 14.0103
rhand -11.5811 7.76289
rfingers 7.12502
rthumb 14.4606 -21.7133
lclavicle 4.32854e-014 -4.37326e-015
lhumerus -35.7151 5.92996 85.1521
lradius 28.6822
lwrist -12.1387
lhand -15.2872 26.4409
lfingers 7.12502
lthumb 10.8877 56.1386
rfemur -11.304 6.30345 22.9124
rtibia 34.4801
rfoot -19.3795 -8.40499
rtoes 5.22713
lfemur -4.76088 -4.41921 -24.1696
ltibia 23.6971
lfoot -14.658 7.96409
ltoes 3.94855
37
root 15.2846 18.1402 -9.71226 0.417628 -50.6284 1.42841
lowerback 5.94239 -0.049991 -0.347046
upperback -1.64571 -0.0609814 0.701491
thorax -5.03981 -0.00846102 0.928446
lowerneck -24.7867 -4.06903 -9.78248
upperneck 26.4475 -4.05301 6.4135
head 13.4001 -1.92275 3.41129
rclavicle 1.59326e-013 1.47101e-014
rhumerus -33.6526 -11.8114 -81.2895
rradius 27.217
rwrist 14.0058
rhand -11.3645 7.9358
rfingers 7.12502
rthumb 14.6694 -21.5253
lclavicle 1.59326e-013 1.47101e-014
lhumerus -35.6327 5.83511 85.188
lradius 28.6226
lwrist -12.2264
lhand -14.6644 26.4794
lfingers 7.12502
lthumb 11.4884 56.1446
rfemur -11.231 6.14087 22.9096
rtibia 34.4911
rfoot -19.4141 -8.47711
rtoes 4.9192
lfemur -4.62915 -4.58987 -24.1862
ltibia 23.5779
lfoot -14.5414 8.10394
ltoes 2.365
38
root 15.2796 18.1391 -9.70304 0.188596 -50.4224 1.64191
lowerback 5.88362 -0.105844 -0.408048
upperback -1.63714 -0.142218 0.660204
thorax -4.99591 -0.0476188 0.927877
lowerneck -24.6305 -4.09944 -9.93735
upperneck 26.4107 -4.0867 6.52504
head 13.3636 -1.94035 3.47507
rclavicle -5.32898e-014 -3.57812e-015
rhumerus -33.7237 -11.8331 -81.2021
rradius 27.2387
rwrist 13.8534
rhand -11.141 8.07129
rfingers 7.12502
rthumb 14.8847 -21.374
lclavicle -5.32898e-014 -3.57812e-015
lhumerus -35.6497 5.8954 85.2575
lradius 28.5538
lwrist -12.3719
lhand -14.5748 26.3583
lfingers 7.12502
lthumb 11.5748 56.0186
rfemur -11.1043 5.95875 22.7586
rtibia 34.5011
rfoot -19.4881 -8.55275
rtoes 4.84642
lfemur -4.45823 -4.87625 -24.3762
ltibia 23.4707
lfoot -14.5105 8.17512
ltoes 2.54419
39
root 15.2759 18.1387 -9.69861 0.0199764 -50.3628 1.82454
lowerback 5.84125 -0.133205 -0.51478
upperback -1.6189 -0.188224 0.632828
thorax -4.9517 -0.0677877 0.963802
lowerneck -24.6365 -4.11423 -9.99143
upperneck 26.4472 -4.0941 6.54466
head 13.3828 -1.94717 3.49164
rclavicle 8.69341e-014 -6.36111e-015
rhumerus -33.7439 -11.568 -81.2729
rradius 27.3263
rwrist 13.5614
rhand -11.2912 7.8181
rfingers 7.12502
rthumb 14.7399 -21.6378
lclavicle 8.69341e-014 -6.36111e-015
lhumerus -35.674 5.9405 85.312
lradius 28.5673
lwrist -12.2379
lhand -14.8124 26.1828
lfingers 7.12502
lthumb 11.3457 55.8559
rfemur -11.043 5.87144 22.6281
rtibia 34.4969
rfoot -19.5116 -8.54162
rtoes 4.58474
lfemur -4.34838 -4.94958 -24.522
ltibia 23.3691
lfoot -14.3627 8.24568
ltoes 2.1814
40
root 15.2741 18.1404 -9.69529 -0.022816 -50.3562 1.86211
lowerback 5.84528 -0.143946 -0.490049
upperback -1.62556 -0.202636 0.589812
thorax -4.96084 -0.0762737 0.906801
lowerneck -24.7177 -4.12436 -9.99818
upperneck 26.5905 -4.11791 6.58262
head 13.4626 -1.95457 3.50736
rclavicle -2.67086e-014 -3.18055e-015
rhumerus -33.7792 -11.3603 -81.4042
rradius 27.3954
rwrist 13.3643
rhand -11.535 7.52991
rfingers 7.12502
rthumb 14.505 -21.9431
lclavicle -2.67086e-014 -3.18055e-015
lhumerus -35.6882 5.89486 85.2844
lradius 28.5886
lwrist -11.9377
lhand -15.1904 26.1724
lfingers 7.12502
lthumb 10.9811 55.8652
rfemur -11.0089 5.83314 22.5973
rtibia 34.4895
rfoot -19.5383 -8.5412
rtoes 4.55012
lfemur -4.2859 -4.78569 -24.543
ltibia 23.2854
lfoot -14.4534 8.02568
ltoes 3.54325
41
root 15.2708 18.1426 -9.69344 -0.0470355 -50.3334 1.89471
lowerback 5.83578 -0.138326 -0.523966
upperback -1.63168 -0.198505 0.572863
thorax -4.96187 -0.0734314 0.907847
lowerneck -24.7231 -4.13394 -10.0424
upperneck 26.6512 -4.12661 6.61234
head 13.492 -1.96007 3.52683
rclavicle 8.19055e-014 7.95139e-015
rhumerus -33.8227 -11.2698 -81.4492
rradius 27.4728
rwrist 13.2212
rhand -11.7891 7.41104
rfingers 7.12502
rthumb 14.2602 -22.0794
lclavicle 8.19055e-014 7.95139e-015
lhumerus -35.678 5.85053 85.3238
lradius 28.6101
lwrist -11.7092
lhand -15.6651 26.3903
lfingers 7.12502
lthumb 10.5232 56.1069
rfemur -10.9839 5.7946 22.5748
rtibia 34.4748
rfoot -19.5341 -8.51955
rtoes 4.58839
lfemur -4.25655 -4.56273 -24.5454
ltibia 23.243
lfoot -14.6057 7.71069
ltoes 4.77312
42
root 15.2685 18.1416 -9.69341 0.00386726 -50.358 1.82688
lowerback 5.82954 -0.125217 -0.518647
upperback -1.63716 -0.179407 0.598238
thorax -4.96437 -0.0637247 0.929248
lowerneck -24.7434 -4.15087 -10.1963
upperneck 26.7181 -4.13246 6.74249
head 13.5323 -1.96172 3.60635
rclavicle 1.38509e-013 9.54166e-015
rhumerus -33.8351 -11.3178 -81.4078
rradius 27.5043
rwrist 13.2586
rhand -11.8731 7.32502
rfingers 7.12502
rthumb 14.1793 -22.1711
lclavicle 1.38509e-013 9.54166e-015
lhumerus -35.7468 5.83164 85.415
lradius 28.7264
lwrist -11.6042
lhand -15.8271 26.6151
lfingers 7.12502
lthumb 10.367 56.3396
rfemur -10.9652 5.81695 22.6319
rtibia 34.4425
rfoot -19.5091 -8.47074
rtoes 4.64074
lfemur -4.261 -4.59575 -24.4779
ltibia 23.262
lfoot -14.5785 7.75788
ltoes 4.05513
43
root 15.2677 18.1405 -9.69355 0.0646915 -50.4074 1.7253
lowerback 5.86729 -0.116802 -0.467895
upperback -1.65419 -0.16315 0.623358
thorax -5.00397 -0.0566257 0.9254
lowerneck -24.8578 -4.17417 -10.3167
upperneck 26.8686 -4.14687 6.84738
head 13.6265 -1.9672 3.67095
rclavicle 2.08848e-014 -2.78299e-015
rhumerus -33.8573 -11.2748 -81.4176
rradius 27.5455
rwrist 13.1783
rhand -11.7123 7.37523
rfingers 7.12502
rthumb 14.3342 -22.1099
lclavicle 2.08848e-014 -2.78299e-015
lhumerus -35.8192 5.74695 85.5069
lradius 28.8357
lwrist -11.4135
lhand -15.6412 26.5476
lfingers 7.12502
lthumb 10.5463 56.263
rfemur -10.9268 5.83829 22.71
rtibia 34.4087
rfoot -19.4832 -8.43396
rtoes 4.58136
lfemur -4.25266 -4.63404 -24.4039
ltibia 23.2895
lfoot -14.4999 7.92103
ltoes 2.48912
